# xmcd
#
# Track frame offsets: 
#        150
#        9823
#        21344
#        27996
#        40644
#        46560
#        51420
#        58223
#        66732
#        72793
#        82956
#        87529
#        94794
#        103932
#        111811
#        118214
#        123784
#        129960
#        140769
#        146053
#        155246
#        160746
#        168330
#        175763
#        182589
#        194115
#        202106
#        208758
#        217920
#        222593
#
# Disc length: 3048 seconds
#
# Revision: 0
# Processed by: cddbd v1.5.2PL0 Copyright (c) Steve Scherf et al.
# Submitted via: ExactAudioCopy v0.99pb5
#
DISCID=c50be61e
DTITLE=Various Artist - Appalachian Banjo Breakdown
DYEAR=2009
DGENRE=Bluegrass
TTITLE0=Mac Martin - Charlotte Breakdown
TTITLE1=Raymond Fairchild - Earl's Breakdown
TTITLE2=Earl Taylor and Jim McCall - John Hardy
TTITLE3=Bobby Atkins - Pike County Breakdown
TTITLE4=Don Reno and Bill Harrell - Limehouse Blues
TTITLE5=Hylo Brown - Maggie
TTITLE6=Raymond Fairchild - Foggy Mountain Top
TTITLE7=Mac Martin - I Don't Love Nobody
TTITLE8=Red Smiley - Dear Old Dixie
TTITLE9=The Cumberlands - Run Boy Run
TTITLE10=Raymond Fairchild - Casey Jones
TTITLE11=Don Reno and Bill Harrell - Dill Pickle Rag
TTITLE12=Bobby Atkins - Flop Eared Mule
TTITLE13=Hylo Brown - Banjo on the Mountain
TTITLE14=Raymond Fairchild - Cripple Creek
TTITLE15=Mac Martin - Sugar in the Gourd
TTITLE16=Jim Greer - Grandfather's Clock
TTITLE17=Don Reno and Bill Harrell - Under the Double Eagle
TTITLE18=Raymond Fairchild - Cumberland Gap
TTITLE19=Mac Martin - Dixie Breakdown
TTITLE20=Lee Moore - The Old Spinning Wheel
TTITLE21=The Log Cabin Boys - Pretty Polly
TTITLE22=Raymond Fairchild - Kicking Mule
TTITLE23=Mac Martin - Going Down the Country
TTITLE24=The Cumberlands - Soldier's Joy
TTITLE25=Red Smiley - Silver Bells
TTITLE26=Raymond Fairchild - John Henry
TTITLE27=Mac Martin - Backtrackin'
TTITLE28=Hylo Brown - Home Sweet Home
TTITLE29=Mac Martin - Fireball Mail
EXTD=
EXTT0=
EXTT1=
EXTT2=
EXTT3=
EXTT4=
EXTT5=
EXTT6=
EXTT7=
EXTT8=
EXTT9=
EXTT10=
EXTT11=
EXTT12=
EXTT13=
EXTT14=
EXTT15=
EXTT16=
EXTT17=
EXTT18=
EXTT19=
EXTT20=
EXTT21=
EXTT22=
EXTT23=
EXTT24=
EXTT25=
EXTT26=
EXTT27=
EXTT28=
EXTT29=
PLAYORDER=
